<?xml version="1.0" encoding="UTF-8"?>
<svg id="Capa_1" data-name="Capa 1" xmlns="http://www.w3.org/2000/svg" viewBox="0 0 1000 1000">
  <defs>
    <style>
      .cls-1 {
        fill: #fff;
      }

      .cls-2 {
        stroke-width: 19px;
      }

      .cls-2, .cls-3 {
        fill: #88afde;
        stroke: #2b56a3;
        stroke-miterlimit: 10;
      }

      .cls-4 {
        fill: #2b56a3;
      }

      .cls-3 {
        stroke-width: 10px;
      }
    </style>
  </defs>
  <g>
    <path class="cls-2" d="M657.32,959.75c-245.35,71.17-514.68-76.97-601.57-330.88C-31.13,374.96,97.33,111.42,342.68,40.25c245.35-71.17,514.68,76.97,601.57,330.88,86.89,253.91-41.57,517.45-286.92,588.63Z"/>
    <g>
      <path class="cls-1" d="M410.14,450.45c-114.49,45.09-115.03,49.45-272.4,92.84,44.1-62.39,115.56-172.09,116-180.21.43-8.11-27.01-158.33-29.93-224.33,28.99,36.53,150.74,246.51,185.27,307.54"/>
      <path class="cls-4" d="M408.14,443.22c-32.72,12.89-65.21,26.4-98.07,38.92-29.74,11.33-60,21.11-90.5,30.15-27.85,8.25-55.83,16.05-83.83,23.78l8.47,11.02c21.85-30.93,42.97-62.39,63.71-94.07,16.42-25.08,33.31-50.15,47.79-76.42,2.63-4.76,5.77-9.73,5.42-15.34-.5-8.02-2.19-16.11-3.42-24.04-4.75-30.5-9.72-60.96-14.2-91.5-5.2-35.43-10.58-71.14-12.21-106.95l-12.8,5.3c1.21,1.53-.85-1.15.2.25.4.54.81,1.08,1.21,1.62.9,1.22,1.79,2.45,2.67,3.68,2.12,2.99,4.19,6.01,6.23,9.05,5.16,7.68,10.16,15.46,15.11,23.27,13.41,21.16,26.44,42.57,39.36,64.03,29.12,48.35,57.66,97.06,85.92,145.92,11.2,19.36,22.36,38.73,33.38,58.2,4.75,8.4,17.72.85,12.95-7.57-22.93-40.52-46.36-80.77-69.92-120.92-27.83-47.43-55.79-94.83-85.06-141.38-9.97-15.85-19.83-32.03-31.46-46.74-4.07-5.15-13.08-.81-12.8,5.3,1.44,31.61,5.94,63.14,10.37,94.44,4.53,32.08,9.64,64.07,14.7,96.06.9,5.71,1.81,11.43,2.68,17.14.33,2.16.66,4.33.98,6.49.14.93.27,1.86.41,2.79.07.52.44,3.18.27,1.92-.18-1.36.12.9.16,1.26.06.51.13,1.02.18,1.52s-.08,2,.19,2.45c.51.85.27-2.4.15-1.13,0,.06-.36,1.12-.38,1.12-.14-.04.83-1.67-.04.03-.39.77-.76,1.55-1.15,2.32-12.45,24.29-28.31,47.15-43.15,70-22.86,35.17-46.2,70.06-70.4,104.33-3.89,5.51,2.53,12.66,8.47,11.02,43.07-11.88,86.22-23.74,128.68-37.71,27.7-9.12,54.87-19.64,81.93-30.49,20.58-8.25,41.16-16.52,61.79-24.65,3.75-1.48,6.41-5.03,5.24-9.23-1-3.58-5.42-6.74-9.23-5.24h0Z"/>
    </g>
    <g>
      <path class="cls-1" d="M411.16,445.79c118.77-32.17,119.79-36.44,280.99-62.19-50.73,57.14-133.87,158.28-135.19,166.29-1.32,8.01,9.36,160.35,4.97,226.26-24.78-39.51-122.59-261.66-150.16-326.12"/>
      <path class="cls-4" d="M413.15,453.02c34.11-9.24,68.06-19.14,102.28-27.98,30.73-7.94,61.81-14.28,93.05-19.88,28.5-5.11,57.07-9.75,85.66-14.32-2.43-4.18-4.86-8.36-7.3-12.54-25.13,28.33-49.59,57.26-73.71,86.46-19.37,23.45-39.14,46.88-56.76,71.69-3.38,4.76-6.82,9.26-7.02,15.29-.26,7.65.4,15.41.74,23.05,1.37,31,2.94,61.98,4.02,92.99,1.25,36.03,2.67,72.36.32,108.37,4.66-1.26,9.32-2.52,13.98-3.79-8.29-13.28-15.03-27.64-21.89-41.69-10.98-22.47-21.54-45.14-32-67.85-23.69-51.45-46.75-103.19-69.53-155.05-8.99-20.48-17.95-40.97-26.75-61.53-1.61-3.75-7.06-4.51-10.26-2.69-3.88,2.21-4.28,6.56-2.69,10.26,18.24,42.62,36.99,85.02,55.89,127.35,22.43,50.26,45,100.5,68.97,150.05,7.93,16.4,15.65,33.24,25.31,48.72,4.07,6.52,13.5,3.56,13.98-3.79,2.04-31.34,1.08-62.92.14-94.28-.97-32.26-2.51-64.5-4.01-96.74-.44-9.57-.95-19.15-1.16-28.74-.04-1.98.33-4.31.03-6.26.03.22-.39,2.63-.09,1.24-.3,1.39-.91,1.61-.15.51s1.34-2.28,2.06-3.38c14.66-22.43,32.72-42.98,49.71-63.68,26.6-32.43,53.65-64.53,81.49-95.91,5.23-5.9.02-13.71-7.3-12.54-44.32,7.08-88.71,14.13-132.64,23.39-28.42,5.99-56.45,13.43-84.43,21.19-21.3,5.9-42.59,11.83-63.92,17.61-9.31,2.52-5.36,17,3.99,14.46h0Z"/>
    </g>
    <g>
      <path class="cls-1" d="M848.86,714.52c-118.67,32.53-119.68,36.82-280.79,63.06,50.55-57.29,133.38-158.69,134.68-166.71,1.3-8.01-9.86-160.32-5.67-226.25,24.9,39.44,123.4,261.27,151.18,325.65"/>
      <path class="cls-4" d="M846.87,707.29c-34.08,9.35-68,19.35-102.19,28.3-30.71,8.04-61.76,14.48-92.98,20.17-28.48,5.2-57.04,9.93-85.62,14.59,2.43,4.18,4.86,8.36,7.3,12.54,25.05-28.41,49.42-57.42,73.44-86.69,19.3-23.51,39-46.99,56.54-71.87,3.36-4.76,6.8-9.29,6.99-15.3.24-7.65-.45-15.41-.81-23.05-1.47-30.99-3.13-61.97-4.31-92.98-1.36-36.02-2.9-72.35-.66-108.37l-13.98,3.79c8.34,13.26,15.11,27.59,22.02,41.62,11.05,22.43,21.68,45.07,32.21,67.75,23.85,51.38,47.07,103.05,70.01,154.84,9.05,20.45,18.07,40.91,26.94,61.44,1.62,3.75,7.05,4.52,10.26,2.69,3.87-2.2,4.29-6.56,2.69-10.26-18.37-42.56-37.26-84.91-56.28-127.18-22.59-50.19-45.32-100.36-69.43-149.83-7.98-16.38-15.75-33.19-25.46-48.64-4.07-6.48-13.52-3.59-13.98,3.79-1.95,31.34-.89,62.92.16,94.28,1.07,32.26,2.71,64.49,4.31,96.73.47,9.57,1.01,19.15,1.25,28.73.05,1.97-.33,4.33-.01,6.26-.04-.22.4-2.63.09-1.24.3-1.38.91-1.62.16-.51s-1.34,2.28-2.05,3.39c-14.59,22.48-32.61,43.11-49.51,63.84-26.5,32.52-53.45,64.7-81.2,96.16-5.19,5.89-.05,13.73,7.3,12.54,44.29-7.22,88.67-14.4,132.56-23.8,28.4-6.08,56.41-13.61,84.37-21.45,21.28-5.97,42.55-11.97,63.86-17.81,9.3-2.55,5.35-17.03-3.99-14.46h0Z"/>
    </g>
  </g>
  <path class="cls-3" d="M760.66,658.46c-10.13,2.94-21.24-3.18-24.83-13.66-3.59-10.48,1.72-21.36,11.84-24.3,10.13-2.94,21.24,3.18,24.83,13.66,3.59,10.48-1.72,21.36-11.84,24.3Z"/>
</svg>